<svg width="60" height="60" viewBox="0 0 60 60" fill="none" xmlns="http://www.w3.org/2000/svg">
<path fill-rule="evenodd" clip-rule="evenodd" d="M5 13.6667C5 11.3681 5.91309 9.16372 7.53841 7.53841C9.16372 5.91309 11.3681 5 13.6667 5H46.3333C48.6319 5 50.8363 5.91309 52.4616 7.53841C54.0869 9.16372 55 11.3681 55 13.6667V46.3333C55 48.6319 54.0869 50.8363 52.4616 52.4616C50.8363 54.0869 48.6319 55 46.3333 55H13.6667C11.3681 55 9.16372 54.0869 7.53841 52.4616C5.91309 50.8363 5 48.6319 5 46.3333V13.6667ZM13.6667 8.33333C12.2522 8.33333 10.8956 8.89524 9.89543 9.89543C8.89524 10.8956 8.33333 12.2522 8.33333 13.6667V46.3333C8.33333 47.7478 8.89524 49.1044 9.89543 50.1046C10.8956 51.1048 12.2522 51.6667 13.6667 51.6667H46.3333C47.7478 51.6667 49.1044 51.1048 50.1046 50.1046C51.1048 49.1044 51.6667 47.7478 51.6667 46.3333V13.6667C51.6667 12.2522 51.1048 10.8956 50.1046 9.89543C49.1044 8.89524 47.7478 8.33333 46.3333 8.33333H13.6667ZM39.8844 22.6044C40.4738 22.6044 41.039 22.3703 41.4558 21.9536C41.8725 21.5368 42.1067 20.9716 42.1067 20.3822C42.1067 19.7929 41.8725 19.2276 41.4558 18.8109C41.039 18.3941 40.4738 18.16 39.8844 18.16C39.2951 18.16 38.7298 18.3941 38.3131 18.8109C37.8964 19.2276 37.6622 19.7929 37.6622 20.3822C37.6622 20.9716 37.8964 21.5368 38.3131 21.9536C38.7298 22.3703 39.2951 22.6044 39.8844 22.6044ZM42.1067 41.0489V24.9978H37.6622V41.0489H42.1067ZM21.2667 20.7644L14.1689 41.0489H18.6622L20.3844 35.9667H28.0689L29.9178 41.0489H34.7889L26.9333 19.2956H21.2667V20.7644ZM26.8089 31.6422H21.6022L24.2067 23.16L26.8089 31.6422Z" fill="white"/>
</svg>
