<svg width="60" height="60" viewBox="0 0 60 60" fill="none" xmlns="http://www.w3.org/2000/svg">
<path d="M25.2085 24.5837C23.8271 24.5837 22.5023 24.0349 21.5255 23.0581C20.5487 22.0813 20 20.7565 20 19.3751C20 17.9937 20.5487 16.6689 21.5255 15.6921C22.5023 14.7153 23.8271 14.1665 25.2085 14.1665H30.4162V24.5837M25.2085 24.5837H30.4162M25.2085 24.5837C23.8273 24.5837 22.5027 25.1323 21.5261 26.109C20.5494 27.0856 20.0008 28.4103 20.0008 29.7915C20.0008 31.1726 20.5494 32.4973 21.5261 33.4739C22.5027 34.4506 23.8273 34.9992 25.2085 34.9992H30.4162V24.5837" stroke="white" stroke-width="3"/>
<path d="M40.8333 29.7916C40.8333 31.173 40.2845 32.4978 39.3078 33.4746C38.331 34.4514 37.0062 35.0002 35.6248 35.0002C34.2435 35.0002 32.9187 34.4514 31.9419 33.4746C30.9651 32.4978 30.4164 31.173 30.4164 29.7916C30.4164 28.4102 30.9651 27.0854 31.9419 26.1086C32.9187 25.1318 34.2435 24.583 35.6248 24.583C37.0062 24.583 38.331 25.1318 39.3078 26.1086C40.2845 27.0854 40.8333 28.4102 40.8333 29.7916ZM25.2087 35.0009H30.4164V40.2087C30.416 41.2387 30.1104 42.2454 29.5379 43.1016C28.9655 43.9578 28.1521 44.6251 27.2005 45.019C26.2489 45.4129 25.2018 45.5158 24.1917 45.3147C23.1817 45.1136 22.2539 44.6175 21.5257 43.8891C20.7976 43.1607 20.3017 42.2328 20.1009 41.2226C19.9001 40.2124 20.0033 39.1654 20.3975 38.2139C20.7917 37.2624 21.4592 36.4491 22.3156 35.8769C23.172 35.3048 24.1787 35.0009 25.2087 35.0009Z" stroke="white" stroke-width="3"/>
<path d="M30.416 14.1665H35.6237C37.0051 14.1665 38.3299 14.7153 39.3066 15.6921C40.2834 16.6689 40.8322 17.9937 40.8322 19.3751C40.8322 20.7565 40.2834 22.0813 39.3066 23.0581C38.3299 24.0349 37.0051 24.5837 35.6237 24.5837H30.416V14.1665Z" stroke="white" stroke-width="3"/>
<rect x="7" y="7" width="46" height="46" rx="8" stroke="white" stroke-width="4"/>
</svg>
