<svg width="60" height="60" viewBox="0 0 60 60" fill="none" xmlns="http://www.w3.org/2000/svg">
<path d="M55 12.1429C55 8.20313 51.7969 5 47.8571 5H12.1429C8.20313 5 5 8.20313 5 12.1429V47.8571C5 51.7969 8.20313 55 12.1429 55H47.8571C51.7969 55 55 51.7969 55 47.8571V12.1429ZM25.1897 51.0826C21.4286 51.0826 19.2522 49.1406 18.1362 46.7857L21.9643 44.4754C22.7009 45.7813 23.3705 46.8862 24.9888 46.8862C26.529 46.8862 27.5112 46.2835 27.5112 43.9286V27.9576H32.2098V43.9955C32.2098 48.8616 29.3527 51.0826 25.1897 51.0826ZM34.7656 46.2835L38.5937 44.0737C39.5982 45.7143 40.9152 46.9308 43.2254 46.9308C45.1674 46.9308 46.4174 45.9598 46.4174 44.6094C46.4174 43.0022 45.1451 42.433 42.9911 41.4844L41.8192 40.9821C38.4263 39.5424 36.183 37.7232 36.183 33.8951C36.183 30.3683 38.8728 27.6897 43.058 27.6897C46.0491 27.6897 48.192 28.7277 49.7321 31.4509L46.0714 33.7946C45.2679 32.3549 44.3973 31.7857 43.0469 31.7857C41.6741 31.7857 40.8036 32.6562 40.8036 33.7946C40.8036 35.2009 41.6741 35.7701 43.6942 36.6518L44.8661 37.154C48.8616 38.8616 51.1049 40.6138 51.1049 44.5424C51.1049 48.7612 47.779 51.0826 43.3259 51.0826C38.9621 51.0826 36.1384 49.0067 34.7656 46.2835Z" fill="white"/>
</svg>
