<svg width="60" height="60" viewBox="0 0 60 60" fill="none" xmlns="http://www.w3.org/2000/svg">
<path fill-rule="evenodd" clip-rule="evenodd" d="M5 13.6667C5 11.3681 5.91309 9.16372 7.53841 7.53841C9.16372 5.91309 11.3681 5 13.6667 5H46.3333C48.6319 5 50.8363 5.91309 52.4616 7.53841C54.0869 9.16372 55 11.3681 55 13.6667V46.3333C55 48.6319 54.0869 50.8363 52.4616 52.4616C50.8363 54.0869 48.6319 55 46.3333 55H13.6667C11.3681 55 9.16372 54.0869 7.53841 52.4616C5.91309 50.8363 5 48.6319 5 46.3333V13.6667ZM13.6667 8.33333C12.2522 8.33333 10.8956 8.89524 9.89543 9.89543C8.89524 10.8956 8.33333 12.2522 8.33333 13.6667V46.3333C8.33333 47.7478 8.89524 49.1044 9.89543 50.1046C10.8956 51.1048 12.2522 51.6667 13.6667 51.6667H46.3333C47.7478 51.6667 49.1044 51.1048 50.1046 50.1046C51.1048 49.1044 51.6667 47.7478 51.6667 46.3333V13.6667C51.6667 12.2522 51.1048 10.8956 50.1046 9.89543C49.1044 8.89524 47.7478 8.33333 46.3333 8.33333H13.6667ZM43.1667 29.1867C41.2622 28.7578 39.2444 28.42 37.7822 28.5289C37.0422 28.5822 36.0978 28.8133 37.0489 29.5778C37.8333 30.2044 38.76 30.5978 39.6889 30.9889C40.6444 31.3933 41.6044 31.8 42.4178 32.4689C43.5533 33.4022 44.4444 34.7622 44.4444 36.6667C44.4444 38.5667 43.5467 40.0222 42.1156 40.8889C40.8511 41.6533 39.3244 41.8711 38.0022 41.9044C35.8644 41.9578 33.5089 41.5311 31.7533 41.1V36.5044C33.3711 36.9667 35.8822 37.5111 37.8911 37.46C38.9356 37.4356 39.5511 37.2444 39.8311 37.0756C40.2756 36.8089 39.8711 36.1289 39.5978 35.9044C38.8156 35.26 37.8756 34.8644 36.9311 34.4667C35.9978 34.0733 35.06 33.6778 34.2689 33.0444C33.1356 32.1333 32.2222 30.7889 32.2222 28.8889C32.2222 27.3444 32.8667 26.0444 34.0444 25.1889C35.0933 24.4333 36.3644 24.1756 37.4511 24.0956C39.2844 23.96 41.4 24.2778 43.1667 24.64V29.1867ZM23.3333 18.8889H15.5556V41.1111H20V34.4444H23.3333C25.3961 34.4444 27.3744 33.625 28.8331 32.1664C30.2917 30.7078 31.1111 28.7295 31.1111 26.6667C31.1111 24.6039 30.2917 22.6256 28.8331 21.1669C27.3744 19.7083 25.3961 18.8889 23.3333 18.8889ZM23.3333 30H20V23.3333H23.3333C24.2174 23.3333 25.0652 23.6845 25.6904 24.3096C26.3155 24.9348 26.6667 25.7826 26.6667 26.6667C26.6667 27.5507 26.3155 28.3986 25.6904 29.0237C25.0652 29.6488 24.2174 30 23.3333 30Z" fill="white"/>
</svg>
