<svg width="60" height="60" viewBox="0 0 60 60" fill="none" xmlns="http://www.w3.org/2000/svg">
<rect x="7" y="7" width="46" height="46" rx="8" stroke="white" stroke-width="4"/>
<path d="M38.6233 46.4596C38.3675 46.5842 38.0887 46.6542 37.8044 46.6653C37.5201 46.6763 37.2366 46.6281 36.972 46.5237C36.7032 46.4193 36.4595 46.2594 36.2566 46.0545L23.1182 34.0084L17.3952 38.375C17.1372 38.5712 16.8187 38.6707 16.4949 38.6562C16.1711 38.6417 15.8627 38.514 15.6234 38.2955L13.7875 36.616C13.6444 36.4849 13.5302 36.3254 13.452 36.1477C13.3739 35.9701 13.3335 35.7781 13.3335 35.584C13.3335 35.3899 13.3739 35.1979 13.452 35.0203C13.5302 34.8426 13.6444 34.6831 13.7875 34.552L18.749 30.0007L13.7875 25.4494C13.6444 25.3183 13.5302 25.1588 13.452 24.9811C13.3739 24.8035 13.3335 24.6115 13.3335 24.4174C13.3335 24.2233 13.3739 24.0313 13.452 23.8536C13.5302 23.676 13.6444 23.5165 13.7875 23.3853L15.6234 21.7059C15.8627 21.4874 16.1711 21.3597 16.4949 21.3452C16.8187 21.3307 17.1372 21.4302 17.3952 21.6264L23.1182 25.993L36.2566 13.9469C36.5593 13.6406 36.9502 13.4366 37.3746 13.3635C37.7989 13.2904 38.2356 13.3518 38.6233 13.5392L45.4873 16.8597C46.2079 17.2084 46.6668 17.9418 46.6668 18.7469V31.2827H38.3387V22.3956L28.3695 30.0007L38.3387 37.6058V31.2827H46.6668V41.2545C46.6668 42.0596 46.2079 42.7929 45.4873 43.1417L38.6233 46.4596Z" fill="white"/>
</svg>
